<?xml version="1.0" encoding="UTF-8" standalone="no"?>
<!-- Created with Inkscape (http://www.inkscape.org/) -->

<svg
   width="1280mm"
   height="640mm"
   viewBox="0 0 1280 640"
   version="1.1"
   id="svg1"
   xml:space="preserve"
   inkscape:version="1.4.2 (ebf0e940d0, 2025-05-08)"
   sodipodi:docname="banner.svg"
   inkscape:export-filename="banner.png"
   inkscape:export-xdpi="25.4"
   inkscape:export-ydpi="25.4"
   xmlns:inkscape="http://www.inkscape.org/namespaces/inkscape"
   xmlns:sodipodi="http://sodipodi.sourceforge.net/DTD/sodipodi-0.dtd"
   xmlns:xlink="http://www.w3.org/1999/xlink"
   xmlns="http://www.w3.org/2000/svg"
   xmlns:svg="http://www.w3.org/2000/svg"><sodipodi:namedview
     id="namedview1"
     pagecolor="#505050"
     bordercolor="#ffffff"
     borderopacity="1"
     inkscape:showpageshadow="0"
     inkscape:pageopacity="0"
     inkscape:pagecheckerboard="1"
     inkscape:deskcolor="#505050"
     inkscape:document-units="mm"
     inkscape:zoom="0.14520585"
     inkscape:cx="1680.373"
     inkscape:cy="943.48814"
     inkscape:window-width="1920"
     inkscape:window-height="1080"
     inkscape:window-x="0"
     inkscape:window-y="0"
     inkscape:window-maximized="1"
     inkscape:current-layer="svg1" /><defs
     id="defs1"><linearGradient
       id="linearGradient9"
       inkscape:collect="always"><stop
         style="stop-color:#b149ae;stop-opacity:1;"
         offset="0"
         id="stop9" /><stop
         style="stop-color:#6024c8;stop-opacity:1;"
         offset="1"
         id="stop10" /></linearGradient><linearGradient
       inkscape:collect="always"
       xlink:href="#linearGradient9"
       id="linearGradient10"
       x1="3.3353047"
       y1="2.8372197"
       x2="37.681568"
       y2="37.183483"
       gradientUnits="userSpaceOnUse"
       spreadMethod="pad"
       gradientTransform="matrix(23.247283,0,0,23.247283,62.990077,-157.03237)" /><filter
       style="color-interpolation-filters:sRGB;"
       inkscape:label="Drop Shadow"
       id="filter17"
       x="0"
       y="0"
       width="1.0144894"
       height="1.0363656"><feFlood
         result="flood"
         in="SourceGraphic"
         flood-opacity="1.000000"
         flood-color="rgb(15,0,41)"
         id="feFlood16" /><feGaussianBlur
         result="blur"
         in="SourceGraphic"
         stdDeviation="0.000000"
         id="feGaussianBlur16" /><feOffset
         result="offset"
         in="blur"
         dx="10.000000"
         dy="10.000000"
         id="feOffset16" /><feComposite
         result="comp1"
         operator="in"
         in="flood"
         in2="offset"
         id="feComposite16" /><feComposite
         result="comp2"
         operator="over"
         in="SourceGraphic"
         in2="comp1"
         id="feComposite17" /></filter></defs><g
     inkscape:label="Banner"
     inkscape:groupmode="layer"
     id="layer1"
     style="display:inline"><rect
       style="fill:#2b073c;fill-opacity:1;stroke-width:0.261964"
       id="rect1"
       width="1280"
       height="640"
       x="0"
       y="0"
       inkscape:label="Background" /><path
       style="fill:#1d0430;fill-opacity:1;stroke-width:0.264583"
       d="m 318.87202,652.32104 c 0,0 109.32755,-174.92408 311.58352,-184.03471 202.25593,-9.11064 264.20823,87.46204 399.04556,60.13016 134.8373,-27.33191 235.0542,-98.39479 173.1019,-244.16486 -37.3679,-87.92443 -131.193,-193.14534 -69.2408,-306.11714 61.9523,-112.9718 236.8764,-43.731018 236.8764,-43.731018 l 1.8221,801.735348 -1060.47718,1.82213 z"
       id="path21"
       sodipodi:nodetypes="csssscccc"
       inkscape:label="Gradient2" /><path
       style="fill:#490c58;fill-opacity:1;stroke-width:0.264583"
       d="m 892.84163,-51.019522 c 0,0 122.08237,200.433842 80.17354,264.208242 -41.90889,63.7744 -189.50109,61.95228 -300.65075,-18.22126 -111.14968,-80.17353 -267.85249,-63.7744 -349.84816,14.577 -81.99566,78.35141 -224.121469,209.54448 -215.01084,298.82862 9.11063,89.28418 32.79826,227.76574 -29.154012,247.80912 -61.952276,20.04338 -280.607368,18.22127 -280.607368,18.22127 l -32.79827,-1044.0781 1089.63121,-7.2885 z"
       id="path22"
       sodipodi:nodetypes="cssssscccc"
       inkscape:label="Gradient1" /><path
       id="path7"
       style="display:inline;mix-blend-mode:normal;fill:url(#linearGradient10);fill-rule:nonzero;stroke:none;stroke-width:23.2474;stroke-opacity:1"
       d="m 79.154013,15.778661 v 107.336849 60.43404 34.14448 l 29.331717,17.4806 125.72593,74.91826 -125.72593,74.96333 -29.331717,17.43555 v 34.14444 163.72991 C 108.71988,581.80006 138.45272,563.51384 168.28391,545.38068 257.77679,490.98122 348.22416,438.1349 438.26098,384.64752 l 29.37707,-17.43556 v -34.1898 -45.17787 -33.59961 L 438.98763,236.67301 170.64473,71.944187 Z M 999.05642,19.819669 C 880.0016,92.363475 759.80776,163.01837 639.94945,234.2214 l -29.42247,17.43527 v 34.18982 45.17783 33.59961 l 28.65045,17.61708 268.34287,164.72879 91.53612,56.16586 v -107.3825 -60.4338 -34.14444 L 969.725,383.694 843.95339,308.77602 969.725,233.85809 999.05642,216.37715 V 182.2327 Z"
       inkscape:label="Icon" /><text
       xml:space="preserve"
       style="font-style:normal;font-variant:normal;font-weight:800;font-stretch:normal;font-size:385.133px;font-family:'Noto Sans';-inkscape-font-specification:'Noto Sans, Ultra-Bold';font-variant-ligatures:normal;font-variant-caps:normal;font-variant-numeric:normal;font-variant-east-asian:normal;text-align:start;writing-mode:lr-tb;direction:ltr;text-anchor:start;display:inline;fill:#ffffff;fill-opacity:1;stroke-width:0.520449;filter:url(#filter17)"
       x="482.10379"
       y="448.31772"
       id="text1"
       inkscape:label="Text"><tspan
         sodipodi:role="line"
         id="tspan1"
         style="font-style:normal;font-variant:normal;font-weight:800;font-stretch:normal;font-size:385.133px;font-family:'Noto Sans';-inkscape-font-specification:'Noto Sans, Ultra-Bold';font-variant-ligatures:normal;font-variant-caps:normal;font-variant-numeric:normal;font-variant-east-asian:normal;fill:#ffffff;fill-opacity:1;stroke-width:0.520449"
         x="482.10379"
         y="448.31772">BBL</tspan></text></g></svg>
